<?xml version="1.0" encoding="UTF-8"?>
<svg width="243px" height="229px" viewBox="0 0 243 229" version="1.1" xmlns="http://www.w3.org/2000/svg" xmlns:xlink="http://www.w3.org/1999/xlink">
    <!-- Generator: Sketch 52.5 (67469) - http://www.bohemiancoding.com/sketch -->
    <title>Group</title>
    <desc>Created with Sketch.</desc>
    <g id="Page-1" stroke="none" stroke-width="1" fill="none" fill-rule="evenodd">
        <g id="router-logo" transform="translate(-205.000000, -311.000000)">
            <g id="Group" transform="translate(205.000000, 300.000000)">
                <path d="M205,169.779412 L0,169.779412 L0,61.4333523 C0,54.5665781 5.5385927,49 12.370845,49 L192.629155,49 C199.461407,49 205,54.5665781 205,61.4333523 L205,169.779412 Z" id="Shape-Copy-2" fill="#374359" fill-rule="nonzero"></path>
                <path d="M144.623288,240 L60.3767123,240 C60.3767123,231.468527 66.6635328,224.551471 74.4176757,224.551471 L130.581927,224.551471 C138.336467,224.551033 144.623288,231.468527 144.623288,240" id="Shape-Copy-8" fill="#EAEBEC" fill-rule="nonzero"></path>
                <polygon id="Shape-Copy-9" fill="#BDC4CA" fill-rule="nonzero" points="127.773973 224.551471 78.630137 224.551471 85.6506281 196.463235 120.753481 196.463235"></polygon>
                <path d="M192.629131,197.867647 L12.3708691,197.867647 C5.53860352,197.867647 0,192.36582 0,185.57892 L0,169.779412 L205,169.779412 L205,185.57892 C205,192.36582 199.461396,197.867647 192.629131,197.867647" id="Shape-Copy-10" fill="#E8EDEE" fill-rule="nonzero"></path>
                <path d="M215.890504,37.8150465 C224.169419,37.8481809 231.30127,41.067907 237.286236,47.4743142 C238.073357,48.3302211 238.423913,49.3565396 238.337906,50.5532698 C238.201448,51.8898981 237.453574,53.1047223 236.500697,53.516914 C235.278708,54.0648217 234.231581,53.8568826 233.359316,52.8930967 C228.481496,47.6484068 222.635789,45.0347728 215.82204,45.0521174 C209.042517,45.0693748 203.212039,47.686391 198.330461,52.9032383 C197.212736,53.9190216 196.063474,54.069361 194.882675,53.3542566 C193.804114,52.5455085 193.466769,51.461767 193.374358,50.5532698 C193.25318,49.3619615 193.595819,48.338441 194.402274,47.4827083 C200.46657,41.004507 207.629253,37.7819828 215.890504,37.8150465 Z M216.536291,17.6482794 C228.845467,17.6988025 239.455766,22.5894391 248.367455,32.3203243 C249.285426,33.1877102 249.628901,34.332208 249.397881,35.7538178 C249.216655,36.8690131 248.467785,38.0189074 247.26481,38.4995174 C246.428853,38.833497 245.503333,38.6036623 244.488249,37.8100134 C236.674789,29.2592603 227.322591,24.9981589 216.431417,25.0265909 C205.596444,25.0548762 196.269832,29.3206256 188.451346,37.8239565 C187.344766,38.7099003 186.256551,38.858222 185.186702,38.2689216 C184.388135,37.8239565 183.726429,36.9592657 183.496129,35.5500693 C183.358779,34.221923 183.716598,33.1487838 184.569585,32.3306518 C193.59842,22.4919453 204.2539,17.5978662 216.536291,17.6482794 Z" id="Combined-Shape" fill="#41C0D2" transform="translate(216.467556, 35.731344) rotate(43.000000) translate(-216.467556, -35.731344) "></path>
                <rect id="Rectangle" fill="#41C0D2" x="8" y="58" width="189" height="104"></rect>
                <g id="Group-2" transform="translate(75.000000, 82.000000)">
                    <circle id="Oval-2-Copy-2" fill="#E8EDEE" cx="28" cy="28" r="28"></circle>
                    <path d="M30.8721992,12.056623 C30.8761188,12.1106426 30.8781129,12.1651982 30.8781129,12.2202209 L30.8781129,19.7508393 C30.8781129,20.9777933 29.8865553,21.9724361 28.6634069,21.9724361 C27.4402586,21.9724361 26.4487009,20.9777933 26.4487009,19.7508393 L26.4487009,12.2202209 C26.4487009,12.1651982 26.450695,12.1106426 26.4546147,12.056623 L25.0648638,12.056623 C24.5691546,12.056623 24.1673028,11.653521 24.1673028,11.1562694 C24.1673028,10.9429531 24.2428068,10.7365658 24.3803603,10.5738852 L27.9789034,6.31798796 C28.2995477,5.93877086 28.8659439,5.89209697 29.2439848,6.2137389 C29.2814094,6.24558029 29.3161678,6.28044684 29.3479105,6.31798796 L32.9464536,10.5738852 C33.2670979,10.9531023 33.2205688,11.5212608 32.8425279,11.8429027 C32.6803519,11.9808841 32.4746047,12.056623 32.2619501,12.056623 L30.8721992,12.056623 Z M30.8721992,44.943377 L32.2619501,44.943377 C32.4746047,44.943377 32.6803519,45.0191159 32.8425279,45.1570973 C33.2205688,45.4787392 33.2670979,46.0468977 32.9464536,46.4261148 L29.3479105,50.682012 C29.3161678,50.7195532 29.2814094,50.7544197 29.2439848,50.7862611 C28.8659439,51.107903 28.2995477,51.0612291 27.9789034,50.682012 L24.3803603,46.4261148 C24.2428068,46.2634342 24.1673028,46.0570469 24.1673028,45.8437306 C24.1673028,45.346479 24.5691546,44.943377 25.0648638,44.943377 L26.4546147,44.943377 C26.450695,44.8893574 26.4487009,44.8348018 26.4487009,44.7797791 L26.4487009,37.2491607 C26.4487009,36.0222067 27.4402586,35.0275639 28.6634069,35.0275639 C29.8865553,35.0275639 30.8781129,36.0222067 30.8781129,37.2491607 L30.8781129,44.7797791 C30.8781129,44.8348018 30.8761188,44.8893574 30.8721992,44.943377 Z M15.8850567,26.0592546 L15.8850567,24.6651797 C15.8850567,24.4518634 15.9605607,24.2454761 16.0981141,24.0827954 C16.4187584,23.7035784 16.9851546,23.6569045 17.3631955,23.9785464 L21.605892,27.588286 C21.6433167,27.6201274 21.6780751,27.654994 21.7098177,27.6925351 C22.030462,28.0717522 21.9839328,28.6399107 21.605892,28.9615526 L17.3631955,32.5712923 C17.2010195,32.7092737 16.9952723,32.7850126 16.7826177,32.7850126 C16.2869084,32.7850126 15.8850567,32.3819105 15.8850567,31.884659 L15.8850567,30.490584 C15.8312047,30.4945158 15.7768183,30.4965161 15.7219663,30.4965161 L8.21470599,30.4965161 C6.99155765,30.4965161 6,29.5018734 6,28.2749193 C6,27.0479653 6.99155765,26.0533225 8.21470599,26.0533225 L15.7219663,26.0533225 C15.7768183,26.0533225 15.8312047,26.0553228 15.8850567,26.0592546 Z M42.1149433,26.0592546 C42.1687953,26.0553228 42.2231817,26.0533225 42.2780337,26.0533225 L49.785294,26.0533225 C51.0084424,26.0533225 52,27.0479653 52,28.2749193 C52,29.5018734 51.0084424,30.4965161 49.785294,30.4965161 L42.2780337,30.4965161 C42.2231817,30.4965161 42.1687953,30.4945158 42.1149433,30.490584 L42.1149433,31.884659 C42.1149433,32.3819105 41.7130916,32.7850126 41.2173823,32.7850126 C41.0047277,32.7850126 40.7989805,32.7092737 40.6368045,32.5712923 L36.394108,28.9615526 C36.0160672,28.6399107 35.969538,28.0717522 36.2901823,27.6925351 C36.3219249,27.654994 36.3566833,27.6201274 36.394108,27.588286 L40.6368045,23.9785464 C41.0148454,23.6569045 41.5812416,23.7035784 41.9018859,24.0827954 C42.0394393,24.2454761 42.1149433,24.4518634 42.1149433,24.6651797 L42.1149433,26.0592546 Z" id="Combined-Shape" fill="#939BA2"></path>
                </g>
                <path d="M77.7132353,169.779412 L163.339844,49 L192.629155,49 C199.461407,49 205,54.5665781 205,61.4333523 L205,169.779412 L77.7132353,169.779412 Z" id="Shape-Copy-2" fill="#FFFFFF" fill-rule="nonzero" opacity="0.188337054"></path>
            </g>
        </g>
    </g>
</svg>